<svg width="25" height="25" viewBox="0 0 25 25" fill="none" xmlns="http://www.w3.org/2000/svg">
<path d="M1.5625 3.90625C1.5625 2.61183 2.61183 1.5625 3.90625 1.5625H22.6562C23.9507 1.5625 25 2.61183 25 3.90625V22.6562C25 23.9507 23.9507 25 22.6562 25H3.90625C2.61183 25 1.5625 23.9507 1.5625 22.6562V21.875H0.78125C0.349778 21.875 0 21.5252 0 21.0938C0 20.6623 0.349778 20.3125 0.78125 20.3125H1.5625V14.0625H0.78125C0.349778 14.0625 0 13.7127 0 13.2812C0 12.8498 0.349778 12.5 0.78125 12.5H1.5625V6.25H0.78125C0.349778 6.25 0 5.90022 0 5.46875C0 5.03728 0.349778 4.6875 0.78125 4.6875H1.5625V3.90625ZM3.90625 3.125C3.47478 3.125 3.125 3.47478 3.125 3.90625V22.6562C3.125 23.0877 3.47478 23.4375 3.90625 23.4375H22.6562C23.0877 23.4375 23.4375 23.0877 23.4375 22.6562V3.90625C23.4375 3.47478 23.0877 3.125 22.6562 3.125H3.90625Z" fill="#626262"/>
<path d="M7.86788 12.5L10.2547 12.5C10.3285 12.2133 10.442 11.9425 10.5889 11.6938L8.90126 10.0061C8.36515 10.7219 8.00041 11.5735 7.86788 12.5ZM10.0061 8.90126L11.6938 10.5889C11.9425 10.442 12.2133 10.3285 12.5 10.2547L12.5 7.86788C11.5735 8.00041 10.7219 8.36515 10.0061 8.90126ZM14.0625 7.86788L14.0625 10.2547C14.3492 10.3285 14.62 10.442 14.8687 10.5889L16.5564 8.90126C15.8406 8.36515 14.989 8.00041 14.0625 7.86788ZM17.6612 10.0061L15.9736 11.6938C16.1205 11.9425 16.234 12.2133 16.3078 12.5L18.6946 12.5C18.5621 11.5735 18.1973 10.7219 17.6612 10.0061ZM18.6946 14.0625L16.3078 14.0625C16.234 14.3492 16.1205 14.62 15.9736 14.8687L17.6612 16.5564C18.1973 15.8406 18.5621 14.989 18.6946 14.0625ZM16.5564 17.6612L14.8687 15.9736C14.62 16.1205 14.3492 16.234 14.0625 16.3078L14.0625 18.6946C14.989 18.5621 15.8406 18.1974 16.5564 17.6612ZM12.5 18.6946L12.5 16.3078C12.2133 16.234 11.9425 16.1205 11.6938 15.9736L10.0061 17.6612C10.7219 18.1973 11.5735 18.5621 12.5 18.6946ZM8.90126 16.5564L10.5889 14.8687C10.442 14.62 10.3285 14.3492 10.2547 14.0625H7.86788C8.00041 14.989 8.36515 15.8406 8.90126 16.5564ZM6.25 13.2812C6.25 9.398 9.398 6.25 13.2812 6.25C17.1645 6.25 20.3125 9.398 20.3125 13.2812C20.3125 17.1645 17.1645 20.3125 13.2812 20.3125C9.398 20.3125 6.25 17.1645 6.25 13.2812ZM13.2812 11.7188C12.4183 11.7188 11.7188 12.4183 11.7188 13.2812C11.7188 14.1442 12.4183 14.8438 13.2812 14.8438C14.1442 14.8438 14.8438 14.1442 14.8438 13.2812C14.8438 12.4183 14.1442 11.7188 13.2812 11.7188Z" fill="#626262"/>
</svg>
