<svg width="25" height="25" viewBox="0 0 25 25" fill="none" xmlns="http://www.w3.org/2000/svg">
<path d="M3.90625 21.0938C3.90625 20.6623 4.25603 20.3125 4.6875 20.3125H20.3125C20.744 20.3125 21.0938 20.6623 21.0938 21.0938C21.0938 21.5252 20.744 21.875 20.3125 21.875H4.6875C4.25603 21.875 3.90625 21.5252 3.90625 21.0938Z" fill="#626262"/>
<path d="M3.90625 21.0938C3.90625 20.6623 4.25603 20.3125 4.6875 20.3125H20.3125C20.744 20.3125 21.0938 20.6623 21.0938 21.0938C21.0938 21.5252 20.744 21.875 20.3125 21.875H4.6875C4.25603 21.875 3.90625 21.5252 3.90625 21.0938Z" fill="#626262"/>
<path d="M21.8609 4.6875C21.8671 4.68774 21.8797 4.68833 21.898 4.68963C21.9419 4.69277 22.0148 4.6998 22.1064 4.71507C22.297 4.74684 22.5273 4.80748 22.7387 4.91317C22.944 5.0158 23.1017 5.14521 23.2116 5.31008C23.315 5.46516 23.4375 5.74216 23.4375 6.25V15.6109C23.4373 15.6171 23.4367 15.6297 23.4354 15.648C23.4322 15.6919 23.4252 15.7648 23.4099 15.8564C23.3782 16.047 23.3175 16.2773 23.2118 16.4887C23.1092 16.694 22.9798 16.8517 22.8149 16.9616C22.6598 17.065 22.3828 17.1875 21.875 17.1875H3.1391C3.13288 17.1873 3.12026 17.1867 3.10205 17.1854C3.05814 17.1822 2.98521 17.1752 2.89359 17.1599C2.70295 17.1282 2.47265 17.0675 2.26127 16.9618C2.05601 16.8592 1.89827 16.7298 1.78836 16.5649C1.68497 16.4098 1.5625 16.1328 1.5625 15.625V6.2641C1.56274 6.25787 1.56333 6.24525 1.56463 6.22705C1.56777 6.18314 1.5748 6.11021 1.59007 6.01859C1.62184 5.82795 1.68248 5.59765 1.78817 5.38627C1.8908 5.18101 2.02021 5.02327 2.18508 4.91336C2.34016 4.80997 2.61716 4.6875 3.125 4.6875H21.8609ZM21.875 3.125H3.125C0 3.125 0 6.25 0 6.25V15.625C0 18.75 3.125 18.75 3.125 18.75H21.875C25 18.75 25 15.625 25 15.625V6.25C25 3.125 21.875 3.125 21.875 3.125Z" fill="#626262"/>
<path d="M21.8609 4.6875C21.8671 4.68774 21.8797 4.68833 21.898 4.68963C21.9419 4.69277 22.0148 4.6998 22.1064 4.71507C22.297 4.74684 22.5273 4.80748 22.7387 4.91317C22.944 5.0158 23.1017 5.14521 23.2116 5.31008C23.315 5.46516 23.4375 5.74216 23.4375 6.25V15.6109C23.4373 15.6171 23.4367 15.6297 23.4354 15.648C23.4322 15.6919 23.4252 15.7648 23.4099 15.8564C23.3782 16.047 23.3175 16.2773 23.2118 16.4887C23.1092 16.694 22.9798 16.8517 22.8149 16.9616C22.6598 17.065 22.3828 17.1875 21.875 17.1875H3.1391C3.13288 17.1873 3.12026 17.1867 3.10205 17.1854C3.05814 17.1822 2.98521 17.1752 2.89359 17.1599C2.70295 17.1282 2.47265 17.0675 2.26127 16.9618C2.05601 16.8592 1.89827 16.7298 1.78836 16.5649C1.68497 16.4098 1.5625 16.1328 1.5625 15.625V6.2641C1.56274 6.25787 1.56333 6.24525 1.56463 6.22705C1.56777 6.18314 1.5748 6.11021 1.59007 6.01859C1.62184 5.82795 1.68248 5.59765 1.78817 5.38627C1.8908 5.18101 2.02021 5.02327 2.18508 4.91336C2.34016 4.80997 2.61716 4.6875 3.125 4.6875H21.8609ZM21.875 3.125H3.125C0 3.125 0 6.25 0 6.25V15.625C0 18.75 3.125 18.75 3.125 18.75H21.875C25 18.75 25 15.625 25 15.625V6.25C25 3.125 21.875 3.125 21.875 3.125Z" fill="#626262"/>
</svg>
