<svg width="25" height="25" viewBox="0 0 25 25" fill="none" xmlns="http://www.w3.org/2000/svg">
<path d="M24.0384 9.5553C24.3681 9.22559 24.3412 8.67813 23.9639 8.40415C20.7444 6.06625 16.7832 4.6875 12.4999 4.6875C8.21672 4.6875 4.25553 6.06625 1.03597 8.40415C0.658666 8.67813 0.631783 9.22559 0.961493 9.5553V9.5553C1.24047 9.83428 1.68504 9.86236 2.0051 9.63169C4.9577 7.50366 8.58242 6.25 12.4999 6.25C16.4175 6.25 20.0422 7.50366 22.9948 9.63169C23.3148 9.86236 23.7594 9.83428 24.0384 9.5553V9.5553Z" fill="#626262"/>
<path d="M20.6702 12.9235C21.0079 12.5858 20.9727 12.0197 20.5721 11.7597C18.2486 10.2512 15.4766 9.375 12.4999 9.375C9.52329 9.375 6.75128 10.2512 4.42774 11.7597C4.02721 12.0197 3.992 12.5858 4.32967 12.9235V12.9235C4.59948 13.1933 5.02761 13.2308 5.34897 13.025C7.41319 11.7036 9.8671 10.9375 12.4999 10.9375C15.1328 10.9375 17.5867 11.7036 19.6509 13.025C19.9723 13.2308 20.4004 13.1933 20.6702 12.9235V12.9235Z" fill="#626262"/>
<path d="M17.2594 16.3342C17.6128 15.9809 17.5481 15.3898 17.1029 15.163C15.7211 14.4593 14.1569 14.0625 12.4999 14.0625C10.843 14.0625 9.27876 14.4593 7.89701 15.163C7.45173 15.3898 7.38709 15.9809 7.74044 16.3342L7.76393 16.3577C8.01452 16.6083 8.40082 16.6554 8.71897 16.4993C9.85995 15.9394 11.1432 15.625 12.4999 15.625C13.8567 15.625 15.1399 15.9394 16.2809 16.4993C16.5991 16.6554 16.9854 16.6083 17.2359 16.3577L17.2594 16.3342Z" fill="#626262"/>
<path d="M14.1572 19.4365C14.4623 19.1314 14.4654 18.6261 14.0945 18.4056C13.6277 18.1281 13.0824 17.9688 12.4999 17.9688C11.9174 17.9688 11.3722 18.1281 10.9053 18.4056C10.5345 18.6261 10.5376 19.1314 10.8427 19.4365L11.9475 20.5413C12.2526 20.8464 12.7473 20.8464 13.0524 20.5413L14.1572 19.4365Z" fill="#626262"/>
</svg>
